<svg width="120" height="120" fill="none" xmlns="http://www.w3.org/2000/svg"><g clip-path="url(#clip0)"><path d="M42.29 106.782c-.87-.871-1.695-1.156-2.85-1.156H27.41c-8.971 0-12.992-4.051-12.992-12.993V80.6c0-1.155-.33-1.98-1.155-2.85L4.74 69.181c-6.286-6.331-6.331-11.958 0-18.29l8.52-8.611c.826-.826 1.156-1.65 1.156-2.821V27.382c0-8.972 4.005-12.948 12.992-12.948H39.44c1.155 0 2.025-.33 2.85-1.156l8.566-8.522c6.331-6.331 11.957-6.376 18.288 0l8.566 8.522c.87.825 1.695 1.156 2.85 1.156h12.032c8.971 0 12.991 4.05 12.991 12.948V39.46c0 1.155.33 1.98 1.156 2.82l8.521 8.613c6.285 6.331 6.33 11.958 0 18.29l-8.521 8.566c-.826.87-1.156 1.696-1.156 2.851v12.033c0 8.972-4.05 12.993-12.991 12.993H80.56c-1.155 0-1.98.285-2.85 1.156l-8.566 8.477c-6.331 6.286-11.957 6.331-18.288 0l-8.566-8.477zm21.768 3.391L74.23 100c1.11-1.2 2.31-1.62 3.886-1.62h14.477c4.875 0 5.746-.916 5.746-5.747V78.11c0-1.576.495-2.776 1.62-3.886l10.216-10.143c3.435-3.48 3.435-4.636 0-8.102L99.958 45.807c-1.11-1.11-1.62-2.311-1.62-3.887V27.397c0-4.846-.87-5.717-5.746-5.717H78.115c-1.575 0-2.775-.45-3.886-1.62L64.06 9.857c-3.481-3.435-4.636-3.435-8.102 0L45.786 20.075c-1.11 1.155-2.28 1.62-3.84 1.62H27.423c-4.921 0-5.746.826-5.746 5.717v14.523c0 1.576-.495 2.776-1.62 3.886L9.84 55.995c-3.39 3.48-3.39 4.636 0 8.102l10.217 10.143c1.11 1.11 1.62 2.31 1.62 3.885v14.524c0 4.846.915 5.747 5.746 5.747h14.521c1.576 0 2.73.42 3.84 1.62l10.172 10.173c3.466 3.42 4.62 3.42 8.101-.015zM48.666 84.321l-17.252-19.4a3.44 3.44 0 01-1.035-2.475c0-2.116 1.62-3.646 3.84-3.646 1.156 0 2.07.375 2.82 1.2l14.358 16.009 27.333-38.65c.915-1.245 1.74-1.785 3.27-1.785 2.116 0 3.72 1.575 3.72 3.646 0 .78-.33 1.65-.824 2.355L54.577 84.111c-.66.87-1.695 1.455-3.06 1.455-1.276 0-2.146-.495-2.85-1.245z" fill="#fff"/></g><defs><clipPath id="clip0"><path fill="#fff" d="M0 0h120v120H0z"/></clipPath></defs></svg>