<svg width="42" height="42" viewBox="0 0 42 42" fill="none" xmlns="http://www.w3.org/2000/svg">
<path fill-rule="evenodd" clip-rule="evenodd" d="M27.3622 36.7232L29.0705 40.3779C26.4474 41.4733 23.7205 42 21.0313 42C13.0152 42.0014 5.34588 37.385 1.85478 29.6082C-0.442692 24.4908 -0.611387 18.7871 1.37988 13.5434C3.2275 8.68254 6.72852 4.75921 11.3051 2.38128L13.0166 6.04177C9.39457 7.96917 6.62078 11.103 5.14883 14.9767C3.54173 19.2121 3.67688 23.8205 5.533 27.9556C9.27738 36.293 18.9625 40.1303 27.3622 36.7232ZM40.1456 12.3983C42.4427 17.5144 42.6114 23.2195 40.6201 28.4628C39.013 32.692 36.1551 36.2116 32.4235 38.6207L30.6808 34.9328C33.4721 32.9983 35.6188 30.2734 36.8507 27.0299C38.4606 22.7941 38.3231 18.1843 36.4674 14.0515C35.8092 12.5855 34.9525 11.2466 33.9436 10.0554L26.0065 33.8275L20.0738 21.1262L15.3625 31.5602L10.3707 19.811L12.3785 15.5369L15.6206 23.1401L20.0539 12.4692L25.0907 23.0923L29.7579 6.49273C27.1595 4.92273 24.1428 4.03443 20.9886 4.03443C19.4212 4.03443 17.8793 4.25426 16.3841 4.67926L14.641 0.993247C16.6937 0.336123 18.8187 0 20.9886 0C29.2452 0 36.7632 4.86647 40.1456 12.3983Z" fill="#15659D"/>
</svg>
