<svg width="463" height="464" viewBox="0 0 463 464" fill="none" xmlns="http://www.w3.org/2000/svg">
<g id="Variant=Splash" clip-path="url(#clip0)">
<g id="Background target">
<g id="Vector">
<path fill-rule="evenodd" clip-rule="evenodd" d="M462.76 232.14C462.76 359.928 359.168 463.52 231.38 463.52C103.592 463.52 0 359.928 0 232.14C0 104.352 103.592 0.76001 231.38 0.76001C359.168 0.76001 462.76 104.352 462.76 232.14ZM405.9 232.14C405.9 328.525 327.765 406.66 231.38 406.66C134.995 406.66 56.86 328.525 56.86 232.14C56.86 135.755 134.995 57.62 231.38 57.62C327.765 57.62 405.9 135.755 405.9 232.14Z" fill="url(#paint0_linear)"/>
<path fill-rule="evenodd" clip-rule="evenodd" d="M349.04 232.14C349.04 297.122 296.362 349.8 231.38 349.8C166.398 349.8 113.72 297.122 113.72 232.14C113.72 167.158 166.398 114.48 231.38 114.48C296.362 114.48 349.04 167.158 349.04 232.14ZM292.17 232.14C292.17 265.713 264.953 292.93 231.38 292.93C197.807 292.93 170.59 265.713 170.59 232.14C170.59 198.567 197.807 171.35 231.38 171.35C264.953 171.35 292.17 198.567 292.17 232.14Z" fill="url(#paint1_linear)"/>
</g>
</g>
<g id="Title text">
<g id="Shadows">
<path id="Vector_2" d="M118.62 205.58L118.58 174.81L110.75 176.5C106.52 177.41 103.81 175.99 103.2 173.15C102.88 171.69 102.8 167.93 104.18 165.78C105.08 164.38 106.33 163.47 109.86 162.71L141.57 155.87C145.8 154.96 148.51 156.38 149.12 159.22C149.44 160.68 149.53 164.44 148.14 166.58C147.24 167.98 145.99 168.9 142.46 169.66L134.01 171.48L134.09 202.4C134.04 207.4 132.4 210.24 127.95 211.2L125.8 211.66C121.58 212.57 118.63 210.48 118.62 205.58Z" fill="#223547"/>
<path id="Vector_3" d="M178.76 192.94C178.28 190.71 178.34 188.37 178.61 183.65C178.82 180.15 178.83 177.58 178.56 176.35C177.95 173.51 176.03 172.07 173.12 172.7C170.59 173.25 169.21 174.67 168.07 177.24L168.05 195.08C168.13 200.69 166.59 202.87 162.83 203.68L161.3 204.01C157.3 204.87 153.41 203.94 153.31 198.26L153.16 156.19C153.17 150.64 154.71 148.46 158.48 147.65L160.01 147.32C164.01 146.46 167.96 147.29 167.9 153.01L167.99 169.06C169.81 164.09 173.77 160.1 179.22 158.92C186.29 157.4 191.55 161.33 193.07 168.39C193.65 171.08 193.61 174.62 193.29 179.83C193.07 183.65 192.95 186.81 193.28 188.35C193.76 190.58 194.97 191.36 197.07 191.39C197.22 191.36 196.96 196.88 189.44 198.5C182.99 199.9 179.73 197.47 178.76 192.94Z" fill="#223547"/>
<path id="Vector_4" d="M220.34 181.41C224.79 180.45 227.9 177.37 229.46 174.14C229.52 174.05 235.44 173.58 236.42 178.1C236.98 180.71 236.5 182.18 235.24 184.15C233.31 187.14 229.04 190.07 222.28 191.52C208.76 194.43 201.16 188.6 199.09 179C196.09 165.1 204.75 153.43 218.03 150.57C228.47 148.32 235.03 151.89 236.56 159.03C238.26 166.94 234.28 172.7 217.47 176.32C215.55 176.73 213.56 177.16 211.3 177.49C212.53 181 215.65 182.42 220.34 181.41ZM214.45 168.29C222.97 166.45 225.24 164.28 224.76 162.05C224.41 160.44 222.49 159.33 219.33 160.01C215.03 160.94 212.13 164.62 211.06 168.94C212.3 168.75 213.45 168.5 214.45 168.29Z" fill="#223547"/>
<path id="Vector_5" d="M118.37 265.93L118.32 228.41C118.34 223.26 120.13 220.39 124.58 219.43L125.96 219.13C129.19 218.43 131.09 219.06 133.72 221.95L150.91 241.71L150.84 221.24C150.81 216.26 152.22 213.47 156.67 212.51L158.36 212.14C162.58 211.23 165.29 213.37 165.23 218.29L165.37 255.87C165.34 260.94 163.55 263.81 159.17 264.76L158.24 264.96C155.1 265.64 153.19 265.01 150.48 262.14L132.72 241.62L132.82 262.97C132.85 267.95 131.44 270.74 126.99 271.7L125.23 272.08C121.09 272.98 118.38 270.83 118.37 265.93Z" fill="#223547"/>
<path id="Vector_6" d="M188.66 258.97C180.44 260.74 173.56 256.04 171.56 246.75C168.86 234.23 174.52 220.24 186.73 217.6C191.57 216.56 196.66 217.79 199.83 221.69C200.91 217.04 203.68 214.59 208.52 213.55C211.36 212.94 213.93 213.67 213.97 214.23L214.02 241.7C214 246.45 215.07 248.06 217.94 248.33C218.03 248.39 217.76 252.71 211.08 254.15C205.01 255.46 201.49 252.93 200.25 248.29C198.64 253.45 194.57 257.7 188.66 258.97ZM191.76 228.26C186.23 229.45 183.93 235.57 185.14 241.18C185.95 244.94 188.87 246.96 192.33 246.22C196.48 245.33 199.27 241.51 199.23 236.46L199.21 231.56C197.54 229.02 195.14 227.53 191.76 228.26Z" fill="#223547"/>
<path id="Vector_7" d="M270.84 199.48C277.75 197.99 283.08 202.23 284.54 208.98C285.12 211.67 285.08 215.21 284.76 220.42C284.54 224.24 284.41 227.4 284.75 228.94C285.23 231.17 286.45 231.95 288.54 231.98C288.77 231.93 288.44 237.46 280.91 239.09C274.54 240.46 271.2 238.05 270.23 233.52C269.75 231.29 269.81 228.95 270.08 224.23C270.29 220.73 270.3 218.16 270.03 216.93C269.42 214.09 267.42 212.67 265.04 213.18C263.05 213.61 261.63 214.88 260.41 217.39C260.39 217.31 260.53 235.44 260.53 235.44C260.53 241.07 258.92 243.26 255.15 244.07L253.62 244.4C249.62 245.26 245.75 244.42 245.78 238.62L245.7 224.09C245.66 220.17 243.62 217.79 240.78 218.41C238.64 218.87 237.3 220.12 236.1 222.39L236.11 240.71C236.19 246.32 234.58 248.51 230.74 249.34L229.28 249.65C225.28 250.51 221.39 249.58 221.36 243.88L221.27 211.76C221.28 211.44 222.99 210.42 225.37 209.91C229.13 209.1 233.16 210.24 234.82 215.35C237.08 209.8 240.83 205.94 246.51 204.71C251.81 203.57 256.69 205.73 259 210.46C261.17 204.94 264.78 200.78 270.84 199.48Z" fill="#223547"/>
<path id="Vector_8" d="M311.89 221.97C316.34 221.01 319.45 217.93 321.01 214.7C321.07 214.61 326.99 214.14 327.97 218.66C328.53 221.27 328.05 222.74 326.79 224.71C324.86 227.7 320.59 230.63 313.83 232.08C300.31 234.99 292.71 229.16 290.64 219.56C287.64 205.66 296.3 193.99 309.58 191.13C320.02 188.88 326.58 192.45 328.11 199.59C329.81 207.5 325.83 213.26 309.02 216.88C307.1 217.29 305.11 217.72 302.85 218.05C304.09 221.56 307.2 222.98 311.89 221.97ZM306.01 208.85C314.53 207.01 316.8 204.84 316.32 202.61C315.97 201 314.05 199.89 310.89 200.57C306.59 201.5 303.69 205.18 302.62 209.5C303.86 209.31 305.01 209.07 306.01 208.85Z" fill="#223547"/>
<path id="Vector_9" d="M155.69 326.47C142.72 329.27 132.94 322.69 130.06 309.33C126.58 293.21 135.63 276.63 152.98 272.89C161.12 271.14 167.71 272.29 171.8 274.86C174.06 276.38 175.54 278.39 176 280.54C177.57 287.84 168.43 289.81 167.93 289.35C165.26 286.63 161.1 284.88 156.26 285.92C148.35 287.62 143.45 295.83 145.38 304.82C146.67 311.54 151.73 315.26 158.18 313.87C160.72 313.32 162.56 312.21 163.91 310.63C165.12 309.17 165.92 308.03 166.26 305.14L160.66 306.35C157.13 307.11 154.94 305.9 154.42 303.51C154.16 302.28 154.03 299.1 155.17 297.32C155.97 296.19 156.99 295.32 159.91 294.7L174.12 291.64C178.27 290.75 180.28 292.64 180.31 297.61L180.34 318.98C180.35 319.38 178.66 320.87 175.97 321.45C172.44 322.21 169.51 321.32 168.06 317.93C165.84 322.11 161.6 325.19 155.69 326.47Z" fill="#223547"/>
<path id="Vector_10" d="M202.7 316.25C194.48 318.02 187.6 313.32 185.6 304.03C182.9 291.51 188.56 277.52 200.77 274.88C205.61 273.84 210.7 275.07 213.87 278.97C214.95 274.32 217.72 271.87 222.56 270.83C225.4 270.22 227.97 270.95 228.01 271.51L228.06 298.98C228.04 303.73 229.11 305.34 231.98 305.61C232.07 305.67 231.8 309.99 225.12 311.43C219.05 312.74 215.53 310.21 214.29 305.57C212.68 310.73 208.61 314.97 202.7 316.25ZM205.8 285.53C200.27 286.72 197.97 292.84 199.18 298.45C199.99 302.21 202.91 304.23 206.37 303.49C210.52 302.6 213.31 298.78 213.27 293.73L213.25 288.83C211.58 286.29 209.18 284.8 205.8 285.53Z" fill="#223547"/>
<path id="Vector_11" d="M284.88 256.75C291.79 255.26 297.12 259.5 298.58 266.25C299.16 268.94 299.12 272.48 298.8 277.69C298.58 281.51 298.45 284.67 298.79 286.21C299.27 288.44 300.49 289.22 302.58 289.25C302.81 289.2 302.48 294.73 294.95 296.36C288.58 297.73 285.24 295.32 284.27 290.79C283.79 288.56 283.85 286.22 284.12 281.5C284.33 278 284.34 275.43 284.07 274.2C283.46 271.36 281.46 269.94 279.08 270.45C277.09 270.88 275.67 272.15 274.45 274.66C274.43 274.58 274.57 292.71 274.57 292.71C274.57 298.34 272.96 300.53 269.19 301.34L267.66 301.67C263.66 302.53 259.79 301.69 259.82 295.89L259.74 281.36C259.7 277.44 257.66 275.06 254.82 275.68C252.68 276.14 251.34 277.39 250.14 279.66L250.15 297.98C250.23 303.59 248.62 305.78 244.78 306.61L243.32 306.92C239.32 307.78 235.43 306.85 235.4 301.15L235.31 269.03C235.32 268.71 237.03 267.69 239.41 267.18C243.17 266.37 247.2 267.51 248.86 272.62C251.12 267.07 254.87 263.21 260.55 261.98C265.85 260.84 270.73 263 273.04 267.73C275.2 262.21 278.81 258.06 284.88 256.75Z" fill="#223547"/>
<path id="Vector_12" d="M325.93 279.24C330.38 278.28 333.49 275.2 335.05 271.97C335.11 271.88 341.03 271.41 342.01 275.93C342.57 278.54 342.09 280.01 340.83 281.98C338.9 284.97 334.63 287.9 327.87 289.35C314.35 292.26 306.75 286.43 304.68 276.83C301.68 262.93 310.34 251.26 323.62 248.4C334.06 246.15 340.62 249.72 342.15 256.86C343.85 264.77 339.87 270.53 323.06 274.15C321.14 274.56 319.15 274.99 316.89 275.32C318.12 278.84 321.24 280.25 325.93 279.24ZM320.04 266.12C328.56 264.28 330.83 262.11 330.35 259.88C330 258.27 328.08 257.16 324.92 257.84C320.62 258.77 317.72 262.45 316.65 266.77C317.89 266.59 319.04 266.34 320.04 266.12Z" fill="#223547"/>
</g>
<g id="Highlights">
<path id="Vector_13" d="M126.04 198.16L126 167.39L118.17 169.08C113.94 169.99 111.23 168.57 110.62 165.73C110.3 164.27 110.22 160.51 111.6 158.36C112.5 156.96 113.75 156.05 117.28 155.29L148.99 148.45C153.22 147.54 155.93 148.96 156.54 151.8C156.86 153.26 156.95 157.02 155.56 159.16C154.66 160.56 153.41 161.48 149.88 162.24L141.43 164.06L141.51 194.98C141.46 199.98 139.82 202.82 135.37 203.78L133.22 204.24C129 205.15 126.06 203.05 126.04 198.16Z" fill="white"/>
<path id="Vector_14" d="M186.18 185.52C185.7 183.29 185.76 180.95 186.03 176.23C186.24 172.73 186.25 170.16 185.98 168.93C185.37 166.09 183.45 164.65 180.54 165.28C178.01 165.83 176.63 167.25 175.49 169.82L175.47 187.66C175.55 193.27 174.01 195.45 170.25 196.26L168.72 196.59C164.72 197.45 160.83 196.52 160.73 190.84L160.58 148.77C160.59 143.22 162.13 141.04 165.9 140.23L167.43 139.9C171.43 139.04 175.38 139.87 175.32 145.59L175.41 161.64C177.23 156.67 181.19 152.68 186.64 151.5C193.71 149.98 198.97 153.91 200.49 160.97C201.07 163.66 201.03 167.2 200.71 172.41C200.49 176.23 200.37 179.39 200.7 180.93C201.18 183.16 202.39 183.94 204.49 183.97C204.64 183.94 204.38 189.46 196.86 191.08C190.42 192.47 187.16 190.04 186.18 185.52Z" fill="white"/>
<path id="Vector_15" d="M227.76 173.98C232.21 173.02 235.32 169.94 236.88 166.71C236.94 166.62 242.86 166.15 243.84 170.67C244.4 173.28 243.92 174.75 242.66 176.72C240.73 179.71 236.46 182.64 229.7 184.09C216.18 187 208.58 181.17 206.51 171.57C203.51 157.67 212.17 146 225.45 143.14C235.89 140.89 242.45 144.46 243.98 151.6C245.68 159.51 241.7 165.27 224.89 168.89C222.97 169.3 220.98 169.73 218.72 170.06C219.96 173.58 223.07 174.99 227.76 173.98ZM221.88 160.86C230.4 159.02 232.67 156.85 232.19 154.62C231.84 153.01 229.92 151.9 226.76 152.58C222.46 153.51 219.56 157.19 218.49 161.51C219.73 161.33 220.88 161.08 221.88 160.86Z" fill="white"/>
<path id="Vector_16" d="M125.8 258.51L125.75 220.99C125.77 215.84 127.56 212.97 132.01 212.01L133.39 211.71C136.62 211.01 138.52 211.64 141.15 214.53L158.34 234.29L158.27 213.82C158.24 208.84 159.65 206.05 164.1 205.09L165.79 204.72C170.01 203.81 172.72 205.95 172.66 210.87L172.8 248.45C172.77 253.52 170.98 256.39 166.6 257.34L165.67 257.54C162.53 258.22 160.62 257.59 157.91 254.72L140.15 234.2L140.25 255.55C140.28 260.53 138.87 263.32 134.42 264.28L132.66 264.66C128.52 265.55 125.8 263.41 125.8 258.51Z" fill="white"/>
<path id="Vector_17" d="M196.08 251.55C187.86 253.32 180.98 248.62 178.98 239.33C176.28 226.81 181.94 212.82 194.15 210.18C198.99 209.14 204.08 210.37 207.25 214.27C208.33 209.62 211.1 207.17 215.94 206.13C218.78 205.52 221.35 206.25 221.39 206.81L221.44 234.28C221.42 239.03 222.49 240.64 225.36 240.91C225.45 240.97 225.18 245.29 218.5 246.73C212.43 248.04 208.91 245.51 207.67 240.87C206.06 246.03 201.99 250.28 196.08 251.55ZM199.18 220.83C193.65 222.02 191.35 228.14 192.56 233.75C193.37 237.51 196.29 239.53 199.75 238.79C203.9 237.9 206.69 234.08 206.65 229.03L206.63 224.13C204.97 221.59 202.56 220.1 199.18 220.83Z" fill="white"/>
<path id="Vector_18" d="M278.27 192.05C285.18 190.56 290.51 194.8 291.97 201.55C292.55 204.24 292.51 207.78 292.19 212.99C291.97 216.81 291.84 219.97 292.18 221.51C292.66 223.74 293.88 224.52 295.97 224.55C296.2 224.5 295.87 230.03 288.34 231.66C281.97 233.03 278.63 230.62 277.66 226.09C277.18 223.86 277.24 221.52 277.51 216.8C277.72 213.3 277.73 210.73 277.46 209.5C276.85 206.66 274.85 205.24 272.47 205.75C270.48 206.18 269.06 207.45 267.84 209.96C267.82 209.88 267.96 228.01 267.96 228.01C267.96 233.64 266.35 235.83 262.58 236.64L261.05 236.97C257.05 237.83 253.18 236.99 253.21 231.19L253.13 216.66C253.09 212.74 251.05 210.36 248.21 210.98C246.07 211.44 244.73 212.69 243.53 214.96L243.54 233.28C243.62 238.89 242.01 241.08 238.17 241.91L236.71 242.22C232.71 243.08 228.82 242.15 228.79 236.45L228.7 204.33C228.71 204.01 230.42 202.99 232.8 202.48C236.56 201.67 240.59 202.81 242.25 207.92C244.51 202.37 248.26 198.51 253.94 197.28C259.24 196.14 264.12 198.3 266.43 203.03C268.6 197.51 272.2 193.36 278.27 192.05Z" fill="white"/>
<path id="Vector_19" d="M319.32 214.55C323.77 213.59 326.88 210.51 328.44 207.28C328.5 207.19 334.42 206.72 335.4 211.24C335.96 213.85 335.48 215.32 334.22 217.29C332.29 220.28 328.02 223.21 321.26 224.66C307.74 227.57 300.14 221.74 298.07 212.14C295.07 198.24 303.73 186.57 317.01 183.71C327.45 181.46 334.01 185.03 335.54 192.17C337.24 200.08 333.26 205.84 316.45 209.46C314.53 209.87 312.54 210.3 310.28 210.63C311.51 214.14 314.63 215.56 319.32 214.55ZM313.43 201.43C321.95 199.59 324.22 197.42 323.74 195.19C323.39 193.58 321.47 192.47 318.31 193.15C314.01 194.08 311.11 197.76 310.04 202.08C311.28 201.89 312.43 201.64 313.43 201.43Z" fill="white"/>
<path id="Vector_20" d="M163.11 319.04C150.14 321.84 140.36 315.26 137.48 301.9C134 285.78 143.05 269.2 160.4 265.46C168.54 263.71 175.13 264.86 179.22 267.43C181.48 268.95 182.96 270.96 183.42 273.11C184.99 280.41 175.85 282.38 175.35 281.92C172.68 279.2 168.52 277.45 163.68 278.49C155.77 280.19 150.87 288.4 152.8 297.39C154.09 304.11 159.15 307.83 165.6 306.44C168.14 305.89 169.98 304.78 171.33 303.2C172.54 301.74 173.34 300.6 173.68 297.71L168.08 298.92C164.55 299.68 162.36 298.47 161.84 296.08C161.58 294.85 161.45 291.67 162.59 289.89C163.39 288.76 164.41 287.89 167.33 287.27L181.54 284.21C185.69 283.32 187.7 285.21 187.73 290.18L187.76 311.55C187.77 311.95 186.08 313.44 183.39 314.02C179.86 314.78 176.93 313.89 175.48 310.5C173.26 314.68 169.02 317.77 163.11 319.04Z" fill="white"/>
<path id="Vector_21" d="M210.12 308.82C201.9 310.59 195.02 305.89 193.02 296.6C190.32 284.08 195.98 270.09 208.19 267.45C213.03 266.41 218.12 267.64 221.29 271.54C222.37 266.89 225.14 264.44 229.98 263.4C232.82 262.79 235.39 263.52 235.43 264.08L235.48 291.55C235.46 296.3 236.53 297.91 239.4 298.18C239.49 298.24 239.22 302.56 232.54 304C226.47 305.31 222.95 302.78 221.71 298.14C220.1 303.3 216.03 307.55 210.12 308.82ZM213.22 278.1C207.69 279.29 205.39 285.41 206.6 291.02C207.41 294.78 210.33 296.8 213.79 296.06C217.94 295.17 220.73 291.35 220.69 286.3L220.67 281.4C219.01 278.87 216.6 277.38 213.22 278.1Z" fill="white"/>
<path id="Vector_22" d="M292.3 249.33C299.21 247.84 304.54 252.08 306 258.83C306.58 261.52 306.54 265.06 306.22 270.27C306 274.09 305.87 277.25 306.21 278.79C306.69 281.02 307.91 281.8 310 281.83C310.23 281.78 309.9 287.31 302.37 288.94C296 290.31 292.66 287.9 291.69 283.37C291.21 281.14 291.27 278.8 291.54 274.08C291.75 270.58 291.76 268.01 291.49 266.78C290.88 263.94 288.88 262.52 286.5 263.03C284.51 263.46 283.09 264.73 281.87 267.24C281.85 267.16 281.99 285.29 281.99 285.29C281.99 290.92 280.38 293.11 276.61 293.92L275.08 294.25C271.08 295.11 267.21 294.27 267.24 288.47L267.16 273.94C267.12 270.02 265.08 267.64 262.24 268.26C260.1 268.72 258.76 269.97 257.56 272.24L257.57 290.56C257.65 296.17 256.04 298.36 252.2 299.19L250.74 299.5C246.74 300.36 242.85 299.43 242.82 293.73L242.73 261.61C242.74 261.29 244.45 260.27 246.83 259.76C250.59 258.95 254.62 260.09 256.28 265.2C258.54 259.65 262.29 255.79 267.97 254.56C273.27 253.42 278.15 255.58 280.46 260.31C282.63 254.79 286.23 250.63 292.3 249.33Z" fill="white"/>
<path id="Vector_23" d="M333.35 271.82C337.8 270.86 340.91 267.78 342.47 264.55C342.53 264.46 348.45 263.99 349.43 268.51C349.99 271.12 349.51 272.59 348.25 274.56C346.32 277.55 342.05 280.48 335.29 281.93C321.77 284.84 314.17 279.01 312.1 269.41C309.1 255.51 317.76 243.84 331.04 240.98C341.48 238.73 348.04 242.3 349.57 249.44C351.27 257.35 347.29 263.11 330.48 266.73C328.56 267.14 326.57 267.57 324.31 267.9C325.55 271.41 328.66 272.83 333.35 271.82ZM327.47 258.7C335.99 256.86 338.26 254.69 337.78 252.46C337.43 250.85 335.51 249.74 332.35 250.42C328.05 251.35 325.15 255.03 324.08 259.35C325.31 259.16 326.47 258.92 327.47 258.7Z" fill="white"/>
</g>
</g>
<g id="Face">
<path id="Shadow" d="M284.17 170.29C299.667 170.29 312.23 157.727 312.23 142.23C312.23 126.733 299.667 114.17 284.17 114.17C268.673 114.17 256.11 126.733 256.11 142.23C256.11 157.727 268.673 170.29 284.17 170.29Z" fill="#223547"/>
<path id="Head" d="M290.09 164.37C305.587 164.37 318.15 151.807 318.15 136.31C318.15 120.813 305.587 108.25 290.09 108.25C274.593 108.25 262.03 120.813 262.03 136.31C262.03 151.807 274.593 164.37 290.09 164.37Z" fill="#2B4C68"/>
<g id="Expression">
<g id="Group">
<path id="Vector_24" d="M297.98 142.95C298.969 142.95 299.77 142.149 299.77 141.16C299.77 140.171 298.969 139.37 297.98 139.37C296.991 139.37 296.19 140.171 296.19 141.16C296.19 142.149 296.991 142.95 297.98 142.95Z" fill="white"/>
<path id="Vector_25" d="M273.34 136.03C274.329 136.03 275.13 135.229 275.13 134.24C275.13 133.251 274.329 132.45 273.34 132.45C272.351 132.45 271.55 133.251 271.55 134.24C271.55 135.229 272.351 136.03 273.34 136.03Z" fill="white"/>
</g>
<path id="Vector_26" d="M282.47 149.08C285.88 150.04 289.58 147.58 290.9 143.55C290.97 143.33 290.84 143.09 290.61 143.02L278.67 139.67C278.44 139.61 278.2 139.74 278.15 139.97C277.18 144.1 279.06 148.12 282.47 149.08Z" fill="white"/>
</g>
</g>
<g id="Shapes">
<path id="Vector_27" d="M230.28 93.08L224.96 94.27L220.96 90.56C220.25 89.9 219.1 90.34 219.01 91.31L218.5 96.74L213.74 99.4C212.9 99.87 212.96 101.11 213.85 101.49L218.86 103.65L219.92 109C220.11 109.95 221.3 110.27 221.94 109.54L225.55 105.44L230.97 106.09C231.93 106.2 232.6 105.17 232.11 104.34L229.33 99.64L231.62 94.69C232 93.83 231.22 92.87 230.28 93.08Z" fill="white"/>
<path id="Vector_28" d="M174.22 349.24L169.24 347L168.26 341.63C168.09 340.68 166.9 340.34 166.25 341.06L162.58 345.1L157.17 344.37C156.21 344.24 155.52 345.27 156 346.1L158.71 350.84L156.35 355.76C155.93 356.63 156.69 357.6 157.64 357.41L162.98 356.29L166.93 360.06C167.63 360.73 168.79 360.3 168.89 359.34L169.48 353.92L174.28 351.33C175.14 350.87 175.1 349.64 174.22 349.24Z" fill="white"/>
<path id="Vector_29" d="M358.95 230.84L353.77 228.66C352.34 228.06 351.67 226.4 352.27 224.97L354.45 219.79C355.05 218.36 356.71 217.69 358.14 218.29L363.32 220.47C364.75 221.07 365.42 222.73 364.82 224.16L362.64 229.34C362.04 230.77 360.39 231.44 358.95 230.84Z" fill="white"/>
<path id="Vector_30" d="M87.27 224.82L89.82 234.35C90.27 236.04 92.39 236.61 93.63 235.37L100.6 228.4C101.84 227.16 101.27 225.04 99.58 224.59L90.05 222.04C88.37 221.57 86.82 223.12 87.27 224.82Z" fill="white"/>
<path id="Vector_31" d="M316.63 317.16L310.4 324.81C309.29 326.17 310.07 328.22 311.8 328.5L321.54 330.07C323.27 330.35 324.65 328.65 324.03 327.01L320.52 317.79C319.91 316.15 317.74 315.8 316.63 317.16Z" fill="white"/>
</g>
</g>
<defs>
<linearGradient id="paint0_linear" x1="231.38" y1="0.76001" x2="231.38" y2="463.52" gradientUnits="userSpaceOnUse">
<stop stop-color="#2B4C68"/>
<stop offset="0.489583" stop-color="#2B4C68"/>
<stop offset="1" stop-color="#253E54"/>
</linearGradient>
<linearGradient id="paint1_linear" x1="231.38" y1="0.76001" x2="231.38" y2="463.52" gradientUnits="userSpaceOnUse">
<stop stop-color="#2B4C68"/>
<stop offset="0.489583" stop-color="#2B4C68"/>
<stop offset="1" stop-color="#253E54"/>
</linearGradient>
<clipPath id="clip0">
<rect width="462.76" height="462.76" fill="white" transform="translate(0 0.76001)"/>
</clipPath>
</defs>
</svg>
