<svg width="181" height="179" fill="none" xmlns="http://www.w3.org/2000/svg"><g clip-path="url(#clip0)"><path d="M90.51 178.02c29 0 52.51-23.51 52.51-52.51 0-29-23.51-52.51-52.51-52.51C61.51 73 38 96.51 38 125.51c0 29 23.51 52.51 52.51 52.51z" fill="#2B4C68"/><path d="M104.49 108.78a3.34 3.34 0 100-6.68 3.34 3.34 0 000 6.68zM56.85 103.74a3.34 3.34 0 100-6.68 3.34 3.34 0 000 6.68zM78.34 124.92c6.6.7 12.65-5 13.82-12.85a.772.772 0 00-.7-.88l-23.09-2.44a.785.785 0 00-.87.72c-.48 7.92 4.25 14.75 10.84 15.45z" fill="#fff"/></g><g clip-path="url(#clip1)"><path d="M168.87 32.84l-13.36 16.41c-1.11 1.36-.33 3.41 1.4 3.69l20.89 3.36c1.73.28 3.11-1.42 2.49-3.06l-7.52-19.77c-.63-1.64-2.79-1.99-3.9-.63z" fill="#fff"/></g><g clip-path="url(#clip2)"><path d="M13.5 57.16L1.72 52.19c-1.43-.6-2.1-2.26-1.5-3.69l4.97-11.78c.6-1.43 2.26-2.1 3.69-1.5l11.78 4.97c1.43.6 2.1 2.26 1.5 3.69l-4.97 11.78a2.82 2.82 0 01-3.69 1.5z" fill="#fff"/></g><g clip-path="url(#clip3)"><path d="M103.07 4.63l-8.71 1.95L87.81.51c-1.16-1.08-3.05-.35-3.2 1.22l-.84 8.89-7.8 4.35c-1.38.77-1.28 2.79.17 3.42l8.2 3.54 1.73 8.76c.31 1.55 2.26 2.08 3.3.89l5.9-6.7 8.87 1.06c1.57.19 2.67-1.51 1.87-2.87l-4.55-7.68 3.75-8.1c.67-1.43-.6-3.01-2.14-2.66z" fill="#fff"/></g><defs><clipPath id="clip0"><path fill="#fff" transform="translate(38 73)" d="M0 0h105.03v105.03H0z"/></clipPath><clipPath id="clip1"><path fill="#fff" transform="translate(155 32)" d="M0 0h25.45v24.33H0z"/></clipPath><clipPath id="clip2"><path fill="#fff" transform="translate(0 35)" d="M0 0h22.38v22.38H0z"/></clipPath><clipPath id="clip3"><path fill="#fff" transform="translate(75)" d="M0 0h31.29v32.23H0z"/></clipPath></defs></svg>