<svg width="325" height="31" fill="none" xmlns="http://www.w3.org/2000/svg"><g clip-path="url(#clip0)" fill="#fff"><path d="M4.434 25.97L7.9 9.783H3.59C1.266 9.765 0 8.71 0 7.143c0-.809.387-2.78 1.355-3.765.633-.633 1.39-.967 3.343-.967H22.17c2.322 0 3.59 1.055 3.59 2.621 0 .81-.388 2.798-1.356 3.766-.633.633-1.39.967-3.343.967H16.4l-3.467 16.276c-.598 2.621-1.777 3.941-4.222 3.941H7.53c-2.322 0-3.641-1.443-3.096-4.012zM37.513 26.129c0-1.232.299-2.446.968-4.91.51-1.812.809-3.167.809-3.853 0-1.566-.845-2.533-2.446-2.533-1.39 0-2.287.598-3.167 1.812l-2.023 9.378c-.599 2.956-1.654 3.941-3.73 3.941h-.845c-2.2 0-4.153-.932-3.554-3.94L28.223 3.87C28.855.968 29.912 0 31.988 0h.845c2.199 0 4.187.88 3.5 3.889l-1.776 8.463c1.513-2.41 4.064-4.065 7.055-4.065 3.889 0 6.212 2.657 6.212 6.563 0 1.478-.423 3.343-1.18 6.053-.545 1.988-.967 3.642-.967 4.487 0 1.231.545 1.777 1.654 2.023.088 0-.686 2.886-4.821 2.886-3.554-.018-4.997-1.672-4.997-4.17zM60.703 24.774c2.446 0 4.434-1.267 5.63-2.798.036-.035 3.22.387 3.22 2.886 0 1.443-.422 2.164-1.302 3.044-1.355 1.355-3.923 2.41-7.654 2.41-7.442 0-10.785-3.923-10.785-9.22 0-7.653 5.876-12.809 13.196-12.809 5.753 0 8.797 2.622 8.797 6.563 0 4.364-2.744 6.933-12.017 6.933-1.056 0-2.164 0-3.378-.088.246 1.988 1.724 3.079 4.293 3.079zm-1.601-7.566c4.698 0 6.14-.88 6.14-2.111 0-.88-.88-1.69-2.621-1.69-2.358 0-4.31 1.602-5.367 3.766.669.035 1.302.035 1.848.035z"/><g><path d="M79.706 25.97L83.928 6.23c.599-2.71 1.866-4.012 4.311-4.012h.757c1.777 0 2.71.545 3.765 2.375l6.81 12.352 2.287-10.786c.563-2.639 1.619-3.959 4.064-3.959h.933c2.322 0 3.501 1.443 2.921 4.012l-4.188 19.794c-.598 2.657-1.865 3.977-4.276 3.977h-.492c-1.724 0-2.657-.545-3.766-2.375l-7.02-12.81-2.375 11.244c-.546 2.621-1.602 3.941-4.065 3.941h-.968c-2.287 0-3.466-1.443-2.92-4.012zM117.5 30.281c-4.522 0-7.619-3.255-7.619-8.375 0-6.897 4.557-13.619 11.296-13.619 2.657 0 5.208 1.232 6.422 3.643 1.091-2.323 2.833-3.29 5.49-3.29 1.566 0 2.833.668 2.798.967L132.79 24.07c-.545 2.499-.176 3.466 1.32 3.924.035.035-.599 2.287-4.276 2.287-3.343 0-4.909-1.742-5.032-4.31-1.425 2.533-4.047 4.31-7.302 4.31zm5.102-15.818c-3.043 0-4.944 2.956-4.944 6.053 0 2.076 1.302 3.466 3.22 3.466 2.287 0 4.188-1.689 4.733-4.363l.546-2.587c-.581-1.513-1.689-2.569-3.555-2.569zM167.488 8.287c3.8 0 6.14 2.833 6.14 6.563 0 1.478-.422 3.343-1.179 6.053-.545 1.988-.967 3.642-.967 4.487 0 1.231.545 1.777 1.654 2.023.123 0-.669 2.886-4.821 2.886-3.502 0-4.997-1.654-4.997-4.153 0-1.231.299-2.445.967-4.909.511-1.812.81-3.167.81-3.853 0-1.566-.88-2.534-2.2-2.534-1.091 0-1.988.51-2.921 1.69 0-.036-1.988 9.518-1.988 9.518-.633 2.956-1.742 3.942-3.8 3.942h-.845c-2.199 0-4.152-.88-3.466-3.942l1.601-7.654c.422-2.076-.387-3.554-1.953-3.554-1.179 0-2.023.51-2.921 1.566l-2.076 9.642c-.598 2.956-1.689 3.942-3.801 3.942h-.809c-2.199 0-4.152-.933-3.519-3.942l3.589-16.909c.036-.175 1.056-.51 2.376-.51 2.076 0 4.064 1.056 4.363 3.924 1.813-2.657 4.223-4.276 7.355-4.276 2.921 0 5.243 1.69 5.912 4.434 1.795-2.657 4.153-4.434 7.496-4.434zM186.543 24.774c2.446 0 4.434-1.267 5.63-2.798.036-.035 3.22.387 3.22 2.886 0 1.443-.422 2.164-1.302 3.044-1.355 1.355-3.923 2.41-7.654 2.41-7.442 0-10.785-3.923-10.785-9.22 0-7.653 5.876-12.809 13.196-12.809 5.753 0 8.797 2.622 8.797 6.563 0 4.364-2.744 6.933-12.017 6.933-1.056 0-2.164 0-3.378-.088.228 1.988 1.706 3.079 4.293 3.079zm-1.601-7.566c4.698 0 6.14-.88 6.14-2.111 0-.88-.879-1.69-2.621-1.69-2.358 0-4.311 1.602-5.367 3.766.651.035 1.285.035 1.848.035z"/></g><g><path d="M218.32 30.316c-7.144 0-11.543-4.557-11.543-11.93 0-8.885 6.634-16.574 16.205-16.574 4.487 0 7.83 1.355 9.678 3.167 1.02 1.056 1.566 2.288 1.566 3.467 0 4.011-5.033 4.011-5.244 3.73-1.091-1.742-3.096-3.132-5.753-3.132-4.364 0-7.865 3.765-7.865 8.71-.088 3.677 2.164 6.21 5.701 6.21 1.39 0 2.498-.387 3.378-1.055.809-.634 1.355-1.144 1.865-2.622h-3.079c-1.953 0-2.956-.88-2.956-2.2 0-.668.299-2.375 1.091-3.166.545-.493 1.179-.845 2.797-.845h7.83c2.287 0 3.132 1.232 2.587 3.853l-2.411 11.244c-.035.21-1.091.809-2.586.809-1.954 0-3.379-.81-3.766-2.745-1.654 1.936-4.24 3.08-7.495 3.08zM244.22 30.281c-4.522 0-7.619-3.255-7.619-8.375 0-6.897 4.557-13.619 11.296-13.619 2.657 0 5.208 1.232 6.422 3.643 1.091-2.323 2.833-3.29 5.49-3.29 1.566 0 2.833.668 2.797.967L259.51 24.07c-.546 2.499-.176 3.466 1.319 3.924.036.035-.598 2.287-4.275 2.287-3.343 0-4.909-1.742-5.032-4.31-1.426 2.533-4.047 4.31-7.302 4.31zm5.102-15.818c-3.044 0-4.944 2.956-4.944 6.053 0 2.076 1.302 3.466 3.22 3.466 2.287 0 4.187-1.689 4.733-4.363l.545-2.587c-.58-1.513-1.689-2.569-3.554-2.569zM294.207 8.287c3.801 0 6.141 2.833 6.141 6.563 0 1.478-.422 3.343-1.179 6.053-.545 1.988-.968 3.642-.968 4.487 0 1.231.546 1.777 1.654 2.023.123 0-.668 2.886-4.821 2.886-3.501 0-4.997-1.654-4.997-4.153 0-1.231.299-2.445.968-4.909.51-1.812.809-3.167.809-3.853 0-1.566-.88-2.534-2.199-2.534-1.091 0-1.988.51-2.921 1.69 0-.036-1.988 9.518-1.988 9.518-.634 2.956-1.742 3.942-3.801 3.942h-.844c-2.2 0-4.153-.88-3.467-3.942l1.602-7.654c.422-2.076-.387-3.554-1.953-3.554-1.179 0-2.024.51-2.921 1.566l-2.076 9.642c-.599 2.956-1.69 3.942-3.801 3.942h-.809c-2.2 0-4.153-.933-3.519-3.942l3.589-16.909c.035-.175 1.056-.51 2.375-.51 2.077 0 4.065 1.056 4.364 3.924 1.812-2.657 4.223-4.276 7.355-4.276 2.92 0 5.243 1.69 5.912 4.434 1.794-2.657 4.152-4.434 7.495-4.434zM313.263 24.774c2.445 0 4.434-1.267 5.63-2.798.035-.035 3.22.387 3.22 2.886 0 1.443-.422 2.164-1.302 3.044-1.355 1.355-3.924 2.41-7.654 2.41-7.443 0-10.786-3.923-10.786-9.22 0-7.653 5.877-12.809 13.197-12.809 5.753 0 8.797 2.622 8.797 6.563 0 4.364-2.745 6.933-12.017 6.933-1.056 0-2.164 0-3.379-.088.229 1.988 1.707 3.079 4.294 3.079zm-1.619-7.566c4.698 0 6.141-.88 6.141-2.111 0-.88-.88-1.69-2.622-1.69-2.358 0-4.311 1.602-5.367 3.766.669.035 1.302.035 1.848.035z"/></g></g><defs><clipPath id="clip0"><path fill="#fff" d="M0 0h324.33v30.316H0z"/></clipPath></defs></svg>